
<svg width="80" height="79" viewBox="0 0 80 79" fill="none" xmlns="http://www.w3.org/2000/svg">
<path d="M46.6407 21.9227L58.5227 11.1781L53.685 26.4498L52.9462 28.782L55.3599 28.3827L71.1646 25.7676L58.8384 35.9995L56.956 37.5621L59.2023 38.531L73.9119 44.8758L58.0107 46.8194L55.5823 47.1162L56.9482 49.1458L65.8925 62.436L51.4647 55.4741L49.2614 54.4109L49.3132 56.8568L49.6523 72.8729L41.2788 59.2159L40 57.1303L38.7212 59.2159L30.3477 72.8729L30.6868 56.8568L30.7386 54.4109L28.5353 55.4741L14.1075 62.436L23.0518 49.1458L24.4177 47.1162L21.9893 46.8194L6.08807 44.8758L20.7977 38.531L23.044 37.5621L21.1616 35.9995L8.83541 25.7676L24.6401 28.3827L27.0538 28.782L26.315 26.4498L21.4773 11.1781L33.3593 21.9227L35.1738 23.5636L35.8132 21.2022L40 5.73935L44.1868 21.2022L44.8262 23.5636L46.6407 21.9227Z" stroke="#EEDB6D" stroke-width="3"/>

<svg width="60" height="59" viewBox="0 0 60 59" fill="none" xmlns="http://www.w3.org/2000/svg">
<path d="M35.2321 16.7202L43.1163 9.59064L39.9063 19.7241L39.1675 22.0563L41.5811 21.657L52.0683 19.9218L43.8893 26.7111L42.0069 28.2737L44.2532 29.2426L54.0137 33.4527L43.4625 34.7423L41.0341 35.0391L42.4001 37.0687L48.335 45.8874L38.7615 41.2679L36.5581 40.2047L36.6099 42.6506L36.835 53.2779L31.2788 44.2159L30 42.1303L28.7212 44.2159L23.165 53.2779L23.3901 42.6506L23.4419 40.2047L21.2385 41.2679L11.665 45.8873L17.5999 37.0687L18.9659 35.0391L16.5375 34.7423L5.98628 33.4527L15.7468 29.2426L17.9931 28.2737L16.1107 26.7111L7.93174 19.9218L18.4189 21.657L20.8325 22.0563L20.0937 19.7241L16.8837 9.59064L24.7679 16.7202L26.5825 18.361L27.2219 15.9996L30 5.73935L32.7781 15.9996L33.4175 18.361L35.2321 16.7202Z" stroke="#EEDB6D" stroke-width="3"/>

</svg>
